<svg xmlns="http://www.w3.org/2000/svg" width="1800" height="900" viewBox="0 0 1800 900" role="img" aria-label="RustFS self-describing disk model">
  <defs>
    <marker id="arrow-head-0" viewBox="0 0 14 14" refX="12" refY="7" markerWidth="14" markerHeight="14" markerUnits="userSpaceOnUse" orient="auto-start-reverse">
      <path d="M 2 2 L 12 7 L 2 12 z" fill="#2563eb"/>
    </marker>
<marker id="arrow-head-1" viewBox="0 0 14 14" refX="12" refY="7" markerWidth="14" markerHeight="14" markerUnits="userSpaceOnUse" orient="auto-start-reverse">
      <path d="M 2 2 L 12 7 L 2 12 z" fill="#64748b"/>
    </marker>
<marker id="arrow-head-2" viewBox="0 0 14 14" refX="12" refY="7" markerWidth="14" markerHeight="14" markerUnits="userSpaceOnUse" orient="auto-start-reverse">
      <path d="M 2 2 L 12 7 L 2 12 z" fill="#2563eb"/>
    </marker>
<marker id="arrow-head-3" viewBox="0 0 14 14" refX="12" refY="7" markerWidth="14" markerHeight="14" markerUnits="userSpaceOnUse" orient="auto-start-reverse">
      <path d="M 2 2 L 12 7 L 2 12 z" fill="#2563eb"/>
    </marker>
    <style>
      svg { background: #fbfbf7; }
      text { font-family: Inter, ui-sans-serif, system-ui, -apple-system, BlinkMacSystemFont, "Segoe UI", sans-serif; }
    </style>
  </defs>
  <rect width="100%" height="100%" fill="#fbfbf7"/>
  
  <g class="zone">
    <rect x="70" y="110" width="420" height="350" rx="10" fill="#dcfce7" stroke="#16a34a" stroke-width="2" opacity="0.45"/>
    <text x="94" y="148" text-anchor="start" font-size="25" font-weight="700" fill="#0f172a"><tspan x="94" dy="0">Startup inputs</tspan></text>
  </g>
<g class="zone">
    <rect x="580" y="110" width="420" height="350" rx="10" fill="#dbeafe" stroke="#2563eb" stroke-width="2" opacity="0.45"/>
    <text x="604" y="148" text-anchor="start" font-size="25" font-weight="700" fill="#0f172a"><tspan x="604" dy="0">Runtime view</tspan></text>
  </g>
<g class="zone">
    <rect x="1090" y="110" width="640" height="350" rx="10" fill="#fef3c7" stroke="#d97706" stroke-width="2" opacity="0.45"/>
    <text x="1114" y="148" text-anchor="start" font-size="25" font-weight="700" fill="#0f172a"><tspan x="1114" dy="0">Per-disk state</tspan></text>
  </g>
<g class="zone">
    <rect x="250" y="560" width="1230" height="300" rx="10" fill="#dbeafe" stroke="#2563eb" stroke-width="2" opacity="0.45"/>
    <text x="274" y="598" text-anchor="start" font-size="25" font-weight="700" fill="#0f172a"><tspan x="274" dy="0">PUT result: pool 0 / set 0</tspan></text>
  </g>
<g class="arrow">
    <path d="M 432 265 L 612 265" fill="none" stroke="#2563eb" stroke-width="3" stroke-linecap="round" stroke-linejoin="round" marker-end="url(#arrow-head-0)"/>
  </g>
<g class="arrow">
    <path d="M 1133.0101900028992 250.64906432977736 L 957.9847149956512 257.866609690901" fill="none" stroke="#64748b" stroke-width="3" stroke-linecap="round" stroke-linejoin="round" stroke-dasharray="9 8" marker-end="url(#arrow-head-1)"/>
  </g>
<g class="arrow">
    <path d="M 785 337 L 785 521 Q 785 535 787.2608399535476 548.8162441605685 L 796.820478501283 607.2362575078405" fill="none" stroke="#2563eb" stroke-width="3" stroke-linecap="round" stroke-linejoin="round" marker-end="url(#arrow-head-2)"/>
  </g>
<g class="arrow">
    <path d="M 1041.8952866870388 703.6695859956168 L 1102.1570699694416 711.6831210065747" fill="none" stroke="#2563eb" stroke-width="3" stroke-linecap="round" stroke-linejoin="round" marker-end="url(#arrow-head-3)"/>
  </g>
<g class="node">
    <rect x="120" y="210" width="300" height="110" rx="8" fill="#dcfce7" stroke="#16a34a" stroke-width="3"/>
    <text x="270" y="249.5" text-anchor="middle" font-size="25" font-weight="650" fill="#0f172a"><tspan x="270" dy="0">RUSTFS_VOLUMES</tspan><tspan x="270" dy="31">8 endpoint list</tspan></text>
  </g>
<g class="node">
    <rect x="630" y="205" width="310" height="120" rx="8" fill="#dbeafe" stroke="#2563eb" stroke-width="3"/>
    <text x="785" y="249.5" text-anchor="middle" font-size="25" font-weight="650" fill="#0f172a"><tspan x="785" dy="0">Any RustFS node</tspan><tspan x="785" dy="31">local + remote disks</tspan></text>
  </g>
<g class="node">
    <rect x="1145" y="185" width="250" height="120" rx="8" fill="#fef3c7" stroke="#d97706" stroke-width="3"/>
    <text x="1270" y="230.5" text-anchor="middle" font-size="23" font-weight="650" fill="#0f172a"><tspan x="1270" dy="0">format.json</tspan><tspan x="1270" dy="29">id / this / sets</tspan></text>
  </g>
<g class="node">
    <rect x="1420" y="185" width="260" height="135" rx="8" fill="#fef3c7" stroke="#d97706" stroke-width="3"/>
    <text x="1550" y="226.5" text-anchor="middle" font-size="21" font-weight="650" fill="#0f172a"><tspan x="1550" dy="0">.rustfs.sys/pool.bin</tspan><tspan x="1550" dy="26">PoolMeta</tspan><tspan x="1550" dy="26">lifecycle state</tspan></text>
  </g>
<g class="node">
    <rect x="585" y="625" width="445" height="95" rx="8" fill="#dbeafe" stroke="#2563eb" stroke-width="3"/>
    <text x="807.5" y="657" text-anchor="middle" font-size="25" font-weight="650" fill="#0f172a"><tspan x="807.5" dy="0">sip_hash(object, set_count, deployment_id)</tspan><tspan x="807.5" dy="31">selects set 0</tspan></text>
  </g>
<g class="node">
    <rect x="585" y="750" width="445" height="90" rx="8" fill="#fef3c7" stroke="#d97706" stroke-width="3"/>
    <text x="807.5" y="781" text-anchor="middle" font-size="22" font-weight="650" fill="#0f172a"><tspan x="807.5" dy="0">bucket/object/xl.meta</tspan><tspan x="807.5" dy="28">logical size / etag / erasure info</tspan></text>
  </g>
<g class="node">
    <rect x="1120" y="665" width="315" height="140" rx="8" fill="#fef3c7" stroke="#d97706" stroke-width="3"/>
    <text x="1277.5" y="707" text-anchor="middle" font-size="22" font-weight="650" fill="#0f172a"><tspan x="1277.5" dy="0">8 x part.1 shards</tspan><tspan x="1277.5" dy="28">node1..node4</tspan><tspan x="1277.5" dy="28">disk1..disk2</tspan></text>
  </g>
<g class="arrow-overlay">
    <circle cx="515" cy="265" r="19" fill="#2563eb" stroke="#ffffff" stroke-width="4"/><text x="515" y="272" text-anchor="middle" font-size="21" font-weight="800" fill="#ffffff">1</text>
    
  </g>
<g class="arrow-overlay">
    <circle cx="1085" cy="253" r="19" fill="#64748b" stroke="#ffffff" stroke-width="4"/><text x="1085" y="260" text-anchor="middle" font-size="21" font-weight="800" fill="#ffffff">2</text>
    
  </g>
<g class="arrow-overlay">
    <circle cx="785" cy="535" r="19" fill="#2563eb" stroke="#ffffff" stroke-width="4"/><text x="785" y="542" text-anchor="middle" font-size="21" font-weight="800" fill="#ffffff">3</text>
    <rect x="870" y="526" width="120" height="38" rx="5" fill="#fbfbf7" stroke="none" opacity="0.94"/><text x="930" y="545" text-anchor="middle" font-size="19" font-weight="650" fill="#1f2937"><tspan x="930" dy="0">PUT object</tspan></text>
  </g>
<g class="arrow-overlay">
    <circle cx="1080" cy="709" r="19" fill="#2563eb" stroke="#ffffff" stroke-width="4"/><text x="1080" y="716" text-anchor="middle" font-size="21" font-weight="800" fill="#ffffff">4</text>
    
  </g>
<g class="legend">
    <g>
        <rect x="70" y="45" width="28" height="18" rx="4" fill="#dcfce7" stroke="#16a34a" stroke-width="2"/>
        <text x="110" y="61" font-size="18" font-weight="600" fill="#334155">startup input</text>
      </g><g>
        <rect x="293" y="45" width="28" height="18" rx="4" fill="#dbeafe" stroke="#2563eb" stroke-width="2"/>
        <text x="333" y="61" font-size="18" font-weight="600" fill="#334155">runtime / request path</text>
      </g><g>
        <rect x="633" y="45" width="28" height="18" rx="4" fill="#fef3c7" stroke="#d97706" stroke-width="2"/>
        <text x="673" y="61" font-size="18" font-weight="600" fill="#334155">persisted metadata / shard</text>
      </g>
  </g>
</svg>
