<svg xmlns="http://www.w3.org/2000/svg" width="1600" height="900" viewBox="0 0 1600 900" role="img" aria-labelledby="title desc">
  <title id="title">RustFS PUT path from S3 client to erasure set and disk metadata</title>
  <desc id="desc">A technical diagram showing S3 client, RustFS node, RUSTFS_VOLUMES, format.json, set selection, xl.meta, pool.bin, and part.1 shards across four nodes and eight disks.</desc>
  <defs>
    <marker id="arrow" markerWidth="12" markerHeight="12" refX="10" refY="6" orient="auto" markerUnits="strokeWidth">
      <path d="M2,2 L10,6 L2,10 Z" fill="#64b5f6"/>
    </marker>
    <marker id="arrow-muted" markerWidth="12" markerHeight="12" refX="10" refY="6" orient="auto" markerUnits="strokeWidth">
      <path d="M2,2 L10,6 L2,10 Z" fill="#9aa4b2"/>
    </marker>
    <style>
      .bg { fill: #0f172a; }
      .panel { fill: #111c33; stroke: #334155; stroke-width: 2; rx: 18; }
      .node { fill: #dbeafe; stroke: #60a5fa; stroke-width: 2; rx: 8; }
      .client { fill: #dcfce7; stroke: #4ade80; stroke-width: 2; rx: 8; }
      .meta { fill: #fef3c7; stroke: #f59e0b; stroke-width: 2; rx: 6; }
      .disk { fill: #f8fafc; stroke: #94a3b8; stroke-width: 2; rx: 6; }
      .set { fill: #172554; stroke: #38bdf8; stroke-width: 2; rx: 10; }
      .text { fill: #e5edf7; font-family: ui-sans-serif, system-ui, -apple-system, BlinkMacSystemFont, "Segoe UI", sans-serif; }
      .dark { fill: #0f172a; font-family: ui-sans-serif, system-ui, -apple-system, BlinkMacSystemFont, "Segoe UI", sans-serif; }
      .muted { fill: #aab7c8; font-family: ui-sans-serif, system-ui, -apple-system, BlinkMacSystemFont, "Segoe UI", sans-serif; }
      .small { font-size: 21px; }
      .tiny { font-size: 18px; }
      .label { font-size: 24px; font-weight: 650; }
      .section { font-size: 19px; font-weight: 650; letter-spacing: 0.02em; }
      .step { fill: #38bdf8; }
      .arrow { stroke: #64b5f6; stroke-width: 4; fill: none; marker-end: url(#arrow); }
      .arrow-muted { stroke: #9aa4b2; stroke-width: 3; fill: none; marker-end: url(#arrow-muted); stroke-dasharray: 8 8; }
    </style>
  </defs>

  <rect class="bg" x="0" y="0" width="1600" height="900"/>
  <text class="muted section" x="70" y="62">4 nodes x 2 disks / 1 pool / 1 set</text>

  <rect class="client" x="70" y="130" width="250" height="110"/>
  <text class="dark label" x="105" y="176">S3 client</text>
  <text class="dark tiny" x="105" y="210">PUT dist-large-2m.bin</text>

  <rect class="node" x="430" y="112" width="330" height="145"/>
  <text class="dark label" x="470" y="159">Any RustFS node</text>
  <text class="dark tiny" x="470" y="195">S3 API + storage node</text>
  <text class="dark tiny" x="470" y="224">internode RPC fan-out</text>

  <rect class="meta" x="430" y="322" width="330" height="120"/>
  <text class="dark label" x="470" y="370">RUSTFS_VOLUMES</text>
  <text class="dark tiny" x="470" y="406">same endpoint list on nodes</text>

  <rect class="meta" x="830" y="112" width="340" height="145"/>
  <text class="dark label" x="870" y="159">format.json</text>
  <text class="dark tiny" x="870" y="195">deployment id</text>
  <text class="dark tiny" x="870" y="224">this + sets + distributionAlgo</text>

  <rect class="set" x="830" y="322" width="650" height="405"/>
  <text class="text label" x="870" y="370">pool 0 / set 0</text>
  <text class="muted tiny" x="870" y="402">set_index = sip_hash(object_name, set_count, deployment_id)</text>

  <g transform="translate(870 442)">
    <rect class="disk" x="0" y="0" width="250" height="62"/>
    <text class="dark tiny" x="18" y="38">node1/disk1  part.1</text>
    <rect class="disk" x="300" y="0" width="250" height="62"/>
    <text class="dark tiny" x="318" y="38">node1/disk2  part.1</text>
    <rect class="disk" x="0" y="82" width="250" height="62"/>
    <text class="dark tiny" x="18" y="120">node2/disk1  part.1</text>
    <rect class="disk" x="300" y="82" width="250" height="62"/>
    <text class="dark tiny" x="318" y="120">node2/disk2  part.1</text>
    <rect class="disk" x="0" y="164" width="250" height="62"/>
    <text class="dark tiny" x="18" y="202">node3/disk1  part.1</text>
    <rect class="disk" x="300" y="164" width="250" height="62"/>
    <text class="dark tiny" x="318" y="202">node3/disk2  part.1</text>
    <rect class="disk" x="0" y="246" width="250" height="62"/>
    <text class="dark tiny" x="18" y="284">node4/disk1  part.1</text>
    <rect class="disk" x="300" y="246" width="250" height="62"/>
    <text class="dark tiny" x="318" y="284">node4/disk2  part.1</text>
  </g>

  <rect class="meta" x="70" y="542" width="650" height="185"/>
  <text class="dark label" x="110" y="590">Per-object metadata</text>
  <text class="dark tiny" x="110" y="629">bucket/object/xl.meta: logical size, etag, parts, erasure metadata</text>
  <text class="dark tiny" x="110" y="668">.rustfs.sys/pool.bin/xl.meta: internal pool metadata object</text>
  <text class="dark tiny" x="110" y="704">small internal data may be inline in xl.meta</text>

  <circle class="step" cx="365" cy="184" r="17"/>
  <text class="dark tiny" x="359" y="191">1</text>
  <path class="arrow" d="M320 184 C350 184, 385 184, 430 184"/>

  <circle class="step" cx="800" cy="184" r="17"/>
  <text class="dark tiny" x="794" y="191">2</text>
  <path class="arrow-muted" d="M760 184 C790 184, 805 184, 830 184"/>

  <circle class="step" cx="800" cy="382" r="17"/>
  <text class="dark tiny" x="794" y="389">3</text>
  <path class="arrow-muted" d="M760 382 C790 382, 805 382, 830 382"/>

  <circle class="step" cx="1185" cy="290" r="17"/>
  <text class="dark tiny" x="1179" y="297">4</text>
  <path class="arrow" d="M1000 257 C1040 287, 1100 312, 1180 322"/>

  <circle class="step" cx="745" cy="602" r="17"/>
  <text class="dark tiny" x="739" y="609">5</text>
  <path class="arrow-muted" d="M720 617 C760 642, 805 657, 860 662"/>

  <text class="muted tiny" x="73" y="835">Solid arrow: request/data path. Dashed arrow: metadata/topology lookup or persisted internal object.</text>
</svg>
