<svg xmlns="http://www.w3.org/2000/svg" width="1800" height="980" viewBox="0 0 1800 980" role="img" aria-label="">
  <defs>
    <marker id="arrow-head-0" viewBox="0 0 14 14" refX="12" refY="7" markerWidth="14" markerHeight="14" markerUnits="userSpaceOnUse" orient="auto-start-reverse">
      <path d="M 2 2 L 12 7 L 2 12 z" fill="#2563eb"/>
    </marker>
<marker id="arrow-head-1" viewBox="0 0 14 14" refX="12" refY="7" markerWidth="14" markerHeight="14" markerUnits="userSpaceOnUse" orient="auto-start-reverse">
      <path d="M 2 2 L 12 7 L 2 12 z" fill="#2563eb"/>
    </marker>
<marker id="arrow-head-2" viewBox="0 0 14 14" refX="12" refY="7" markerWidth="14" markerHeight="14" markerUnits="userSpaceOnUse" orient="auto-start-reverse">
      <path d="M 2 2 L 12 7 L 2 12 z" fill="#2563eb"/>
    </marker>
<marker id="arrow-head-3" viewBox="0 0 14 14" refX="12" refY="7" markerWidth="14" markerHeight="14" markerUnits="userSpaceOnUse" orient="auto-start-reverse">
      <path d="M 2 2 L 12 7 L 2 12 z" fill="#64748b"/>
    </marker>
    <style>
      svg { background: #fbfbf7; }
      text { font-family: Inter, ui-sans-serif, system-ui, -apple-system, BlinkMacSystemFont, "Segoe UI", sans-serif; }
    </style>
  </defs>
  <rect width="100%" height="100%" fill="#fbfbf7"/>
  
  <g class="zone">
    <rect x="60" y="150" width="250" height="590" rx="10" fill="#dcfce7" stroke="#16a34a" stroke-width="2" opacity="0.45"/>
    <text x="84" y="188" text-anchor="start" font-size="25" font-weight="700" fill="#0f172a"><tspan x="84" dy="0">Entry</tspan></text>
  </g>
<g class="zone">
    <rect x="390" y="90" width="560" height="720" rx="10" fill="#dbeafe" stroke="#2563eb" stroke-width="2" opacity="0.45"/>
    <text x="414" y="113.5" text-anchor="start" font-size="23" font-weight="700" fill="#0f172a"><tspan x="414" dy="0">pool 0</tspan><tspan x="414" dy="29">node{1...4} / data{1...2}</tspan></text>
  </g>
<g class="zone">
    <rect x="1090" y="90" width="560" height="720" rx="10" fill="#fef3c7" stroke="#d97706" stroke-width="2" opacity="0.45"/>
    <text x="1114" y="113.5" text-anchor="start" font-size="23" font-weight="700" fill="#0f172a"><tspan x="1114" dy="0">pool 1</tspan><tspan x="1114" dy="29">node{5...8} / data{1...2}</tspan></text>
  </g>
<g class="arrow">
    <path d="M 248.5601767747798 385.7519070083929 L 330 470 L 430 545 L 430 650 L 459 650" fill="none" stroke="#2563eb" stroke-width="3" stroke-linecap="round" stroke-linejoin="round" marker-end="url(#arrow-head-0)"/>
  </g>
<g class="arrow">
    <path d="M 233.19574057168745 626.4768835471551 L 330 760 L 1120 760 L 1206.6290152220759 721.4982154568552" fill="none" stroke="#2563eb" stroke-width="3" stroke-linecap="round" stroke-linejoin="round" marker-end="url(#arrow-head-1)"/>
  </g>
<g class="arrow">
    <path d="M 868 650 L 1159 650" fill="none" stroke="#2563eb" stroke-width="3" stroke-linecap="round" stroke-linejoin="round" marker-end="url(#arrow-head-2)"/>
  </g>
<g class="arrow">
    <path d="M 1547.9999906765504 867.8137404437811 L 1670 868 L 1670 330 L 1238 330 L 1237.8 295" fill="none" stroke="#64748b" stroke-width="3" stroke-linecap="round" stroke-linejoin="round" stroke-dasharray="9 8" marker-end="url(#arrow-head-3)"/>
  </g>
<g class="node">
    <rect x="95" y="260" width="180" height="120" rx="8" fill="#dcfce7" stroke="#16a34a" stroke-width="3"/>
    <text x="185" y="304.5" text-anchor="middle" font-size="25" font-weight="650" fill="#0f172a"><tspan x="185" dy="0">S3 client</tspan><tspan x="185" dy="31">rc CLI</tspan></text>
  </g>
<g class="node">
    <rect x="95" y="500" width="180" height="120" rx="8" fill="#dcfce7" stroke="#16a34a" stroke-width="3"/>
    <text x="185" y="544.5" text-anchor="middle" font-size="25" font-weight="650" fill="#0f172a"><tspan x="185" dy="0">rc admin</tspan><tspan x="185" dy="31">expand start</tspan></text>
  </g>
<g class="node">
    <rect x="435" y="190" width="205" height="105" rx="8" fill="#dbeafe" stroke="#2563eb" stroke-width="3"/>
    <text x="537.5" y="227" text-anchor="middle" font-size="25" font-weight="650" fill="#0f172a"><tspan x="537.5" dy="0">node1</tspan><tspan x="537.5" dy="31">/data1 /data2</tspan></text>
  </g>
<g class="node">
    <rect x="695" y="190" width="205" height="105" rx="8" fill="#dbeafe" stroke="#2563eb" stroke-width="3"/>
    <text x="797.5" y="227" text-anchor="middle" font-size="25" font-weight="650" fill="#0f172a"><tspan x="797.5" dy="0">node2</tspan><tspan x="797.5" dy="31">/data1 /data2</tspan></text>
  </g>
<g class="node">
    <rect x="435" y="350" width="205" height="105" rx="8" fill="#dbeafe" stroke="#2563eb" stroke-width="3"/>
    <text x="537.5" y="387" text-anchor="middle" font-size="25" font-weight="650" fill="#0f172a"><tspan x="537.5" dy="0">node3</tspan><tspan x="537.5" dy="31">/data1 /data2</tspan></text>
  </g>
<g class="node">
    <rect x="695" y="350" width="205" height="105" rx="8" fill="#dbeafe" stroke="#2563eb" stroke-width="3"/>
    <text x="797.5" y="387" text-anchor="middle" font-size="25" font-weight="650" fill="#0f172a"><tspan x="797.5" dy="0">node4</tspan><tspan x="797.5" dy="31">/data1 /data2</tspan></text>
  </g>
<g class="node">
    <rect x="475" y="585" width="385" height="130" rx="8" fill="#fef3c7" stroke="#d97706" stroke-width="3"/>
    <text x="667.5" y="634.5" text-anchor="middle" font-size="25" font-weight="650" fill="#0f172a"><tspan x="667.5" dy="0">before-expand/obj-000..095</tspan><tspan x="667.5" dy="31">96 objects initially in pool 0</tspan></text>
  </g>
<g class="node">
    <rect x="1135" y="190" width="205" height="105" rx="8" fill="#fef3c7" stroke="#d97706" stroke-width="3"/>
    <text x="1237.5" y="227" text-anchor="middle" font-size="25" font-weight="650" fill="#0f172a"><tspan x="1237.5" dy="0">node5</tspan><tspan x="1237.5" dy="31">/data1 /data2</tspan></text>
  </g>
<g class="node">
    <rect x="1395" y="190" width="205" height="105" rx="8" fill="#fef3c7" stroke="#d97706" stroke-width="3"/>
    <text x="1497.5" y="227" text-anchor="middle" font-size="25" font-weight="650" fill="#0f172a"><tspan x="1497.5" dy="0">node6</tspan><tspan x="1497.5" dy="31">/data1 /data2</tspan></text>
  </g>
<g class="node">
    <rect x="1135" y="350" width="205" height="105" rx="8" fill="#fef3c7" stroke="#d97706" stroke-width="3"/>
    <text x="1237.5" y="387" text-anchor="middle" font-size="25" font-weight="650" fill="#0f172a"><tspan x="1237.5" dy="0">node7</tspan><tspan x="1237.5" dy="31">/data1 /data2</tspan></text>
  </g>
<g class="node">
    <rect x="1395" y="350" width="205" height="105" rx="8" fill="#fef3c7" stroke="#d97706" stroke-width="3"/>
    <text x="1497.5" y="387" text-anchor="middle" font-size="25" font-weight="650" fill="#0f172a"><tspan x="1497.5" dy="0">node8</tspan><tspan x="1497.5" dy="31">/data1 /data2</tspan></text>
  </g>
<g class="node">
    <rect x="1175" y="585" width="385" height="130" rx="8" fill="#fef3c7" stroke="#d97706" stroke-width="3"/>
    <text x="1367.5" y="619" text-anchor="middle" font-size="25" font-weight="650" fill="#0f172a"><tspan x="1367.5" dy="0">rebalance result</tspan><tspan x="1367.5" dy="31">50 objects move to pool 1</tspan><tspan x="1367.5" dy="31">new_pool_files=800</tspan></text>
  </g>
<g class="node">
    <rect x="1145" y="820" width="395" height="95" rx="8" fill="#fee2e2" stroke="#dc2626" stroke-width="3"/>
    <text x="1342.5" y="852" text-anchor="middle" font-size="25" font-weight="650" fill="#111827"><tspan x="1342.5" dy="0">replace node5/disk1</tspan><tspan x="1342.5" dy="31">empty disk -&gt; healed shard</tspan></text>
  </g>
<g class="arrow-overlay">
    <circle cx="330" cy="470" r="19" fill="#2563eb" stroke="#ffffff" stroke-width="4"/><text x="330" y="477" text-anchor="middle" font-size="21" font-weight="800" fill="#ffffff">1</text>
    <rect x="330" y="513" width="290" height="38" rx="5" fill="#fbfbf7" stroke="none" opacity="0.94"/><text x="475" y="532" text-anchor="middle" font-size="19" font-weight="650" fill="#1f2937"><tspan x="475" dy="0">PUT before-expand/obj-*.bin</tspan></text>
  </g>
<g class="arrow-overlay">
    <circle cx="330" cy="760" r="19" fill="#2563eb" stroke="#ffffff" stroke-width="4"/><text x="330" y="767" text-anchor="middle" font-size="21" font-weight="800" fill="#ffffff">2</text>
    <rect x="645" y="766" width="270" height="38" rx="5" fill="#fbfbf7" stroke="none" opacity="0.94"/><text x="780" y="785" text-anchor="middle" font-size="19" font-weight="650" fill="#1f2937"><tspan x="780" dy="0">post-expansion rebalance</tspan></text>
  </g>
<g class="arrow-overlay">
    <circle cx="890" cy="690" r="19" fill="#2563eb" stroke="#ffffff" stroke-width="4"/><text x="890" y="697" text-anchor="middle" font-size="21" font-weight="800" fill="#ffffff">3</text>
    <rect x="900.5" y="606" width="235" height="38" rx="5" fill="#fbfbf7" stroke="none" opacity="0.94"/><text x="1018" y="625" text-anchor="middle" font-size="19" font-weight="650" fill="#1f2937"><tspan x="1018" dy="0">object shards rewritten</tspan></text>
  </g>
<g class="arrow-overlay">
    <circle cx="1580" cy="818" r="19" fill="#64748b" stroke="#ffffff" stroke-width="4"/><text x="1580" y="825" text-anchor="middle" font-size="21" font-weight="800" fill="#ffffff">4</text>
    <rect x="1295" y="741" width="330" height="38" rx="5" fill="#fbfbf7" stroke="none" opacity="0.94"/><text x="1460" y="760" text-anchor="middle" font-size="19" font-weight="650" fill="#1f2937"><tspan x="1460" dy="0">auto heal / recreate missing shard</tspan></text>
  </g>
<g class="legend">
    <g>
        <rect x="60" y="900" width="28" height="18" rx="4" fill="#dcfce7" stroke="#16a34a" stroke-width="2"/>
        <text x="100" y="916" font-size="18" font-weight="600" fill="#334155">client / admin command</text>
      </g><g>
        <rect x="400" y="900" width="28" height="18" rx="4" fill="#dbeafe" stroke="#2563eb" stroke-width="2"/>
        <text x="440" y="916" font-size="18" font-weight="600" fill="#334155">old pool</text>
      </g><g>
        <rect x="558" y="900" width="28" height="18" rx="4" fill="#fef3c7" stroke="#d97706" stroke-width="2"/>
        <text x="598" y="916" font-size="18" font-weight="600" fill="#334155">disk / object state</text>
      </g><g>
        <rect x="859" y="900" width="28" height="18" rx="4" fill="#fee2e2" stroke="#dc2626" stroke-width="2"/>
        <text x="899" y="916" font-size="18" font-weight="600" fill="#334155">failure / replacement</text>
      </g>
  </g>
</svg>
