<svg xmlns="http://www.w3.org/2000/svg" width="1800" height="980" viewBox="0 0 1800 980" role="img" aria-label="">
  <defs>
    <marker id="arrow-solid" viewBox="0 0 12 12" refX="10" refY="6" markerWidth="12" markerHeight="12" orient="auto-start-reverse">
      <path d="M 0 0 L 12 6 L 0 12 z" fill="#2563eb"/>
    </marker>
    <marker id="arrow-dash" viewBox="0 0 12 12" refX="10" refY="6" markerWidth="12" markerHeight="12" orient="auto-start-reverse">
      <path d="M 0 0 L 12 6 L 0 12 z" fill="#64748b"/>
    </marker>
    <style>
      svg { background: #fbfbf7; }
      text { font-family: Inter, ui-sans-serif, system-ui, -apple-system, BlinkMacSystemFont, "Segoe UI", sans-serif; }
    </style>
  </defs>
  <rect width="100%" height="100%" fill="#fbfbf7"/>
  
  <g class="zone">
    <rect x="60" y="150" width="250" height="590" rx="10" fill="#dcfce7" stroke="#16a34a" stroke-width="2" opacity="0.45"/>
    <text x="84" y="188" text-anchor="start" font-size="25" font-weight="700" fill="#0f172a"><tspan x="84" dy="0">Entry</tspan></text>
  </g>
<g class="zone">
    <rect x="390" y="90" width="560" height="720" rx="10" fill="#dbeafe" stroke="#2563eb" stroke-width="2" opacity="0.45"/>
    <text x="414" y="113.5" text-anchor="start" font-size="23" font-weight="700" fill="#0f172a"><tspan x="414" dy="0">pool 0</tspan><tspan x="414" dy="29">node{1...4} / data{1...2}</tspan></text>
  </g>
<g class="zone">
    <rect x="1090" y="90" width="560" height="720" rx="10" fill="#fef3c7" stroke="#d97706" stroke-width="2" opacity="0.45"/>
    <text x="1114" y="113.5" text-anchor="start" font-size="23" font-weight="700" fill="#0f172a"><tspan x="1114" dy="0">pool 1</tspan><tspan x="1114" dy="29">node{5...8} / data{1...2}</tspan></text>
  </g>
<g class="node">
    <rect x="95" y="260" width="180" height="120" rx="8" fill="#dcfce7" stroke="#16a34a" stroke-width="3"/>
    <text x="185" y="304.5" text-anchor="middle" font-size="25" font-weight="650" fill="#0f172a"><tspan x="185" dy="0">S3 client</tspan><tspan x="185" dy="31">rc CLI</tspan></text>
  </g>
<g class="node">
    <rect x="95" y="500" width="180" height="120" rx="8" fill="#dcfce7" stroke="#16a34a" stroke-width="3"/>
    <text x="185" y="544.5" text-anchor="middle" font-size="25" font-weight="650" fill="#0f172a"><tspan x="185" dy="0">rc admin</tspan><tspan x="185" dy="31">expand start</tspan></text>
  </g>
<g class="node">
    <rect x="435" y="190" width="205" height="105" rx="8" fill="#dbeafe" stroke="#2563eb" stroke-width="3"/>
    <text x="537.5" y="227" text-anchor="middle" font-size="25" font-weight="650" fill="#0f172a"><tspan x="537.5" dy="0">node1</tspan><tspan x="537.5" dy="31">/data1 /data2</tspan></text>
  </g>
<g class="node">
    <rect x="695" y="190" width="205" height="105" rx="8" fill="#dbeafe" stroke="#2563eb" stroke-width="3"/>
    <text x="797.5" y="227" text-anchor="middle" font-size="25" font-weight="650" fill="#0f172a"><tspan x="797.5" dy="0">node2</tspan><tspan x="797.5" dy="31">/data1 /data2</tspan></text>
  </g>
<g class="node">
    <rect x="435" y="350" width="205" height="105" rx="8" fill="#dbeafe" stroke="#2563eb" stroke-width="3"/>
    <text x="537.5" y="387" text-anchor="middle" font-size="25" font-weight="650" fill="#0f172a"><tspan x="537.5" dy="0">node3</tspan><tspan x="537.5" dy="31">/data1 /data2</tspan></text>
  </g>
<g class="node">
    <rect x="695" y="350" width="205" height="105" rx="8" fill="#dbeafe" stroke="#2563eb" stroke-width="3"/>
    <text x="797.5" y="387" text-anchor="middle" font-size="25" font-weight="650" fill="#0f172a"><tspan x="797.5" dy="0">node4</tspan><tspan x="797.5" dy="31">/data1 /data2</tspan></text>
  </g>
<g class="node">
    <rect x="475" y="585" width="385" height="130" rx="8" fill="#fef3c7" stroke="#d97706" stroke-width="3"/>
    <text x="667.5" y="634.5" text-anchor="middle" font-size="25" font-weight="650" fill="#0f172a"><tspan x="667.5" dy="0">before-expand/obj-000..095</tspan><tspan x="667.5" dy="31">96 objects initially in pool 0</tspan></text>
  </g>
<g class="node">
    <rect x="1135" y="190" width="205" height="105" rx="8" fill="#fef3c7" stroke="#d97706" stroke-width="3"/>
    <text x="1237.5" y="227" text-anchor="middle" font-size="25" font-weight="650" fill="#0f172a"><tspan x="1237.5" dy="0">node5</tspan><tspan x="1237.5" dy="31">/data1 /data2</tspan></text>
  </g>
<g class="node">
    <rect x="1395" y="190" width="205" height="105" rx="8" fill="#fef3c7" stroke="#d97706" stroke-width="3"/>
    <text x="1497.5" y="227" text-anchor="middle" font-size="25" font-weight="650" fill="#0f172a"><tspan x="1497.5" dy="0">node6</tspan><tspan x="1497.5" dy="31">/data1 /data2</tspan></text>
  </g>
<g class="node">
    <rect x="1135" y="350" width="205" height="105" rx="8" fill="#fef3c7" stroke="#d97706" stroke-width="3"/>
    <text x="1237.5" y="387" text-anchor="middle" font-size="25" font-weight="650" fill="#0f172a"><tspan x="1237.5" dy="0">node7</tspan><tspan x="1237.5" dy="31">/data1 /data2</tspan></text>
  </g>
<g class="node">
    <rect x="1395" y="350" width="205" height="105" rx="8" fill="#fef3c7" stroke="#d97706" stroke-width="3"/>
    <text x="1497.5" y="387" text-anchor="middle" font-size="25" font-weight="650" fill="#0f172a"><tspan x="1497.5" dy="0">node8</tspan><tspan x="1497.5" dy="31">/data1 /data2</tspan></text>
  </g>
<g class="node">
    <rect x="1175" y="585" width="385" height="130" rx="8" fill="#fef3c7" stroke="#d97706" stroke-width="3"/>
    <text x="1367.5" y="619" text-anchor="middle" font-size="25" font-weight="650" fill="#0f172a"><tspan x="1367.5" dy="0">rebalance result</tspan><tspan x="1367.5" dy="31">50 objects move to pool 1</tspan><tspan x="1367.5" dy="31">new_pool_files=800</tspan></text>
  </g>
<g class="node">
    <rect x="1145" y="820" width="395" height="95" rx="8" fill="#fee2e2" stroke="#dc2626" stroke-width="3"/>
    <text x="1342.5" y="852" text-anchor="middle" font-size="25" font-weight="650" fill="#111827"><tspan x="1342.5" dy="0">replace node5/disk1</tspan><tspan x="1342.5" dy="31">empty disk -&gt; healed shard</tspan></text>
  </g>
<g class="arrow">
    <path d="M 272.72727272727275 380 L 330 320 L 360 470 L 470 585 L 572.4621212121212 585" fill="none" stroke="#2563eb" stroke-width="4" stroke-linecap="round" stroke-linejoin="round" marker-end="url(#arrow-solid)"/>
    <circle cx="272.72727272727275" cy="380" r="22" fill="#2563eb" stroke="#ffffff" stroke-width="4"/><text x="272.72727272727275" y="388" text-anchor="middle" font-size="24" font-weight="800" fill="#ffffff">1</text>
    <rect x="330" y="446" width="290" height="36" rx="6" fill="#fbfbf7" opacity="0.86"/><text x="475" y="470" text-anchor="middle" font-size="20" font-weight="650" fill="#1f2937"><tspan x="475" dy="0">PUT before-expand/obj-*.bin</tspan></text>
  </g>
<g class="arrow">
    <path d="M 275 566.8498942917547 L 330 560 L 980 510 L 1070 650 L 1175 635.3488372093024" fill="none" stroke="#2563eb" stroke-width="4" stroke-linecap="round" stroke-linejoin="round" marker-end="url(#arrow-solid)"/>
    <circle cx="275" cy="566.8498942917547" r="22" fill="#2563eb" stroke="#ffffff" stroke-width="4"/><text x="275" y="574.8498942917547" text-anchor="middle" font-size="24" font-weight="800" fill="#ffffff">2</text>
    <rect x="745" y="476" width="270" height="36" rx="6" fill="#fbfbf7" opacity="0.86"/><text x="880" y="500" text-anchor="middle" font-size="20" font-weight="650" fill="#1f2937"><tspan x="880" dy="0">post-expansion rebalance</tspan></text>
  </g>
<g class="arrow">
    <path d="M 860 650 L 1175 650" fill="none" stroke="#2563eb" stroke-width="4" stroke-linecap="round" stroke-linejoin="round" marker-end="url(#arrow-solid)"/>
    <circle cx="860" cy="650" r="22" fill="#2563eb" stroke="#ffffff" stroke-width="4"/><text x="860" y="658" text-anchor="middle" font-size="24" font-weight="800" fill="#ffffff">3</text>
    <rect x="900.5" y="651" width="235" height="36" rx="6" fill="#fbfbf7" opacity="0.86"/><text x="1018" y="675" text-anchor="middle" font-size="20" font-weight="650" fill="#1f2937"><tspan x="1018" dy="0">object shards rewritten</tspan></text>
  </g>
<g class="arrow">
    <path d="M 1334.52 820 L 1246.32 295" fill="none" stroke="#2563eb" stroke-width="4" stroke-linecap="round" stroke-linejoin="round" stroke-dasharray="12 10" marker-end="url(#arrow-dash)"/>
    <circle cx="1334.52" cy="820" r="22" fill="#2563eb" stroke="#ffffff" stroke-width="4"/><text x="1334.52" y="828" text-anchor="middle" font-size="24" font-weight="800" fill="#ffffff">4</text>
    <rect x="1050" y="751" width="330" height="36" rx="6" fill="#fbfbf7" opacity="0.86"/><text x="1215" y="775" text-anchor="middle" font-size="20" font-weight="650" fill="#1f2937"><tspan x="1215" dy="0">auto heal / recreate missing shard</tspan></text>
  </g>
<g class="legend">
    <g>
        <rect x="60" y="900" width="28" height="18" rx="4" fill="#dcfce7" stroke="#16a34a" stroke-width="2"/>
        <text x="100" y="916" font-size="18" font-weight="600" fill="#334155">client / admin command</text>
      </g><g>
        <rect x="400" y="900" width="28" height="18" rx="4" fill="#dbeafe" stroke="#2563eb" stroke-width="2"/>
        <text x="440" y="916" font-size="18" font-weight="600" fill="#334155">old pool</text>
      </g><g>
        <rect x="558" y="900" width="28" height="18" rx="4" fill="#fef3c7" stroke="#d97706" stroke-width="2"/>
        <text x="598" y="916" font-size="18" font-weight="600" fill="#334155">disk / object state</text>
      </g><g>
        <rect x="859" y="900" width="28" height="18" rx="4" fill="#fee2e2" stroke="#dc2626" stroke-width="2"/>
        <text x="899" y="916" font-size="18" font-weight="600" fill="#334155">failure / replacement</text>
      </g>
  </g>
</svg>
