<svg xmlns="http://www.w3.org/2000/svg" width="1800" height="1050" viewBox="0 0 1800 1050" role="img" aria-label="RustFS startup control path and DistErasure topology">
  <defs>
    <marker id="arrow-head-0" viewBox="0 0 14 14" refX="12" refY="7" markerWidth="14" markerHeight="14" markerUnits="userSpaceOnUse" orient="auto-start-reverse">
      <path d="M 2 2 L 12 7 L 2 12 z" fill="#2563eb"/>
    </marker>
<marker id="arrow-head-1" viewBox="0 0 14 14" refX="12" refY="7" markerWidth="14" markerHeight="14" markerUnits="userSpaceOnUse" orient="auto-start-reverse">
      <path d="M 2 2 L 12 7 L 2 12 z" fill="#2563eb"/>
    </marker>
<marker id="arrow-head-2" viewBox="0 0 14 14" refX="12" refY="7" markerWidth="14" markerHeight="14" markerUnits="userSpaceOnUse" orient="auto-start-reverse">
      <path d="M 2 2 L 12 7 L 2 12 z" fill="#2563eb"/>
    </marker>
<marker id="arrow-head-3" viewBox="0 0 14 14" refX="12" refY="7" markerWidth="14" markerHeight="14" markerUnits="userSpaceOnUse" orient="auto-start-reverse">
      <path d="M 2 2 L 12 7 L 2 12 z" fill="#2563eb"/>
    </marker>
<marker id="arrow-head-4" viewBox="0 0 14 14" refX="12" refY="7" markerWidth="14" markerHeight="14" markerUnits="userSpaceOnUse" orient="auto-start-reverse">
      <path d="M 2 2 L 12 7 L 2 12 z" fill="#2563eb"/>
    </marker>
<marker id="arrow-head-5" viewBox="0 0 14 14" refX="12" refY="7" markerWidth="14" markerHeight="14" markerUnits="userSpaceOnUse" orient="auto-start-reverse">
      <path d="M 2 2 L 12 7 L 2 12 z" fill="#2563eb"/>
    </marker>
<marker id="arrow-head-6" viewBox="0 0 14 14" refX="12" refY="7" markerWidth="14" markerHeight="14" markerUnits="userSpaceOnUse" orient="auto-start-reverse">
      <path d="M 2 2 L 12 7 L 2 12 z" fill="#2563eb"/>
    </marker>
<marker id="arrow-head-7" viewBox="0 0 14 14" refX="12" refY="7" markerWidth="14" markerHeight="14" markerUnits="userSpaceOnUse" orient="auto-start-reverse">
      <path d="M 2 2 L 12 7 L 2 12 z" fill="#64748b"/>
    </marker>
<marker id="arrow-head-8" viewBox="0 0 14 14" refX="12" refY="7" markerWidth="14" markerHeight="14" markerUnits="userSpaceOnUse" orient="auto-start-reverse">
      <path d="M 2 2 L 12 7 L 2 12 z" fill="#2563eb"/>
    </marker>
<marker id="arrow-head-9" viewBox="0 0 14 14" refX="12" refY="7" markerWidth="14" markerHeight="14" markerUnits="userSpaceOnUse" orient="auto-start-reverse">
      <path d="M 2 2 L 12 7 L 2 12 z" fill="#2563eb"/>
    </marker>
<marker id="arrow-head-10" viewBox="0 0 14 14" refX="12" refY="7" markerWidth="14" markerHeight="14" markerUnits="userSpaceOnUse" orient="auto-start-reverse">
      <path d="M 2 2 L 12 7 L 2 12 z" fill="#2563eb"/>
    </marker>
<marker id="arrow-head-11" viewBox="0 0 14 14" refX="12" refY="7" markerWidth="14" markerHeight="14" markerUnits="userSpaceOnUse" orient="auto-start-reverse">
      <path d="M 2 2 L 12 7 L 2 12 z" fill="#2563eb"/>
    </marker>
<marker id="arrow-head-12" viewBox="0 0 14 14" refX="12" refY="7" markerWidth="14" markerHeight="14" markerUnits="userSpaceOnUse" orient="auto-start-reverse">
      <path d="M 2 2 L 12 7 L 2 12 z" fill="#2563eb"/>
    </marker>
    <style>
      svg { background: #fbfbf7; }
      text { font-family: Inter, ui-sans-serif, system-ui, -apple-system, BlinkMacSystemFont, "Segoe UI", sans-serif; }
    </style>
  </defs>
  <rect width="100%" height="100%" fill="#fbfbf7"/>
  
  <g class="zone">
    <rect x="60" y="100" width="435" height="780" rx="10" fill="#dbeafe" stroke="#2563eb" stroke-width="2" opacity="0.45"/>
    <text x="84" y="138" text-anchor="start" font-size="25" font-weight="700" fill="#0f172a"><tspan x="84" dy="0">Startup control path</tspan></text>
  </g>
<g class="zone">
    <rect x="535" y="100" width="430" height="780" rx="10" fill="#dcfce7" stroke="#16a34a" stroke-width="2" opacity="0.45"/>
    <text x="559" y="138" text-anchor="start" font-size="25" font-weight="700" fill="#0f172a"><tspan x="559" dy="0">Runtime topology state</tspan></text>
  </g>
<g class="zone">
    <rect x="1040" y="100" width="700" height="860" rx="10" fill="#fef3c7" stroke="#d97706" stroke-width="2" opacity="0.45"/>
    <text x="1064" y="138" text-anchor="start" font-size="23" font-weight="700" fill="#0f172a"><tspan x="1064" dy="0">DistErasure topology in this environment</tspan></text>
  </g>
<g class="zone">
    <rect x="1085" y="315" width="300" height="500" rx="10" fill="#dbeafe" stroke="#2563eb" stroke-width="2" opacity="0.45"/>
    <text x="1109" y="328" text-anchor="start" font-size="20" font-weight="700" fill="#0f172a"><tspan x="1109" dy="0">pool 0</tspan><tspan x="1109" dy="25">node1..node4</tspan><tspan x="1109" dy="25">/data1 /data2</tspan></text>
  </g>
<g class="zone">
    <rect x="1415" y="315" width="300" height="500" rx="10" fill="#fef3c7" stroke="#d97706" stroke-width="2" opacity="0.45"/>
    <text x="1439" y="328" text-anchor="start" font-size="20" font-weight="700" fill="#0f172a"><tspan x="1439" dy="0">pool 1</tspan><tspan x="1439" dy="25">node5..node8</tspan><tspan x="1439" dy="25">/data1 /data2</tspan></text>
  </g>
<g class="arrow">
    <path d="M 275 242 L 275 280" fill="none" stroke="#2563eb" stroke-width="3" stroke-linecap="round" stroke-linejoin="round" marker-end="url(#arrow-head-0)"/>
  </g>
<g class="arrow">
    <path d="M 275 392 L 275 430" fill="none" stroke="#2563eb" stroke-width="3" stroke-linecap="round" stroke-linejoin="round" marker-end="url(#arrow-head-1)"/>
  </g>
<g class="arrow">
    <path d="M 275 557 L 275 605" fill="none" stroke="#2563eb" stroke-width="3" stroke-linecap="round" stroke-linejoin="round" marker-end="url(#arrow-head-2)"/>
  </g>
<g class="arrow">
    <path d="M 275 737 L 275 770" fill="none" stroke="#2563eb" stroke-width="3" stroke-linecap="round" stroke-linejoin="round" marker-end="url(#arrow-head-3)"/>
  </g>
<g class="arrow">
    <path d="M 457 675 L 486 675 Q 500 675 500 661 L 500 234 Q 500 220 514 220 L 565 220" fill="none" stroke="#2563eb" stroke-width="3" stroke-linecap="round" stroke-linejoin="round" marker-end="url(#arrow-head-4)"/>
  </g>
<g class="arrow">
    <path d="M 750 287 L 750 340" fill="none" stroke="#2563eb" stroke-width="3" stroke-linecap="round" stroke-linejoin="round" marker-end="url(#arrow-head-5)"/>
  </g>
<g class="arrow">
    <path d="M 750 482 L 750 535" fill="none" stroke="#2563eb" stroke-width="3" stroke-linecap="round" stroke-linejoin="round" marker-end="url(#arrow-head-6)"/>
  </g>
<g class="arrow">
    <path d="M 750 677 L 750 730" fill="none" stroke="#64748b" stroke-width="3" stroke-linecap="round" stroke-linejoin="round" stroke-dasharray="9 8" marker-end="url(#arrow-head-7)"/>
  </g>
<g class="arrow">
    <path d="M 927 610 L 986 610 Q 1000 610 1000 596 L 1000 237 Q 1000 223 1013.9999894614143 222.98282209882035 L 1110.0000150551225 222.86503065637407" fill="none" stroke="#2563eb" stroke-width="3" stroke-linecap="round" stroke-linejoin="round" marker-end="url(#arrow-head-8)"/>
  </g>
<g class="arrow">
    <path d="M 1278.2178504365288 631.1175989254677 L 1257.7619159391188 681.4706684575539" fill="none" stroke="#2563eb" stroke-width="3" stroke-linecap="round" stroke-linejoin="round" marker-end="url(#arrow-head-9)"/>
  </g>
<g class="arrow">
    <path d="M 1608.2178504365288 631.1175989254677 L 1587.7619159391188 681.4706684575539" fill="none" stroke="#2563eb" stroke-width="3" stroke-linecap="round" stroke-linejoin="round" marker-end="url(#arrow-head-10)"/>
  </g>
<g class="arrow">
    <path d="M 1280.3615427408013 783.5488388429344 L 1331.785488466824 835.7519352617759" fill="none" stroke="#2563eb" stroke-width="3" stroke-linecap="round" stroke-linejoin="round" marker-end="url(#arrow-head-11)"/>
  </g>
<g class="arrow">
    <path d="M 1519.6384572591987 783.5488388429344 L 1468.214511533176 835.7519352617759" fill="none" stroke="#2563eb" stroke-width="3" stroke-linecap="round" stroke-linejoin="round" marker-end="url(#arrow-head-12)"/>
  </g>
<g class="node">
    <rect x="105" y="150" width="340" height="80" rx="8" fill="#dbeafe" stroke="#2563eb" stroke-width="3"/>
    <text x="275" y="174.5" text-anchor="middle" font-size="25" font-weight="650" fill="#0f172a"><tspan x="275" dy="0">async_main()</tspan><tspan x="275" dy="31">parse CommandResult</tspan></text>
  </g>
<g class="node">
    <rect x="105" y="300" width="340" height="80" rx="8" fill="#dbeafe" stroke="#2563eb" stroke-width="3"/>
    <text x="275" y="324.5" text-anchor="middle" font-size="25" font-weight="650" fill="#0f172a"><tspan x="275" dy="0">run(config)</tspan><tspan x="275" dy="31">startup orchestration</tspan></text>
  </g>
<g class="node">
    <rect x="105" y="450" width="340" height="95" rx="8" fill="#dbeafe" stroke="#2563eb" stroke-width="3"/>
    <text x="275" y="472.5" text-anchor="middle" font-size="20" font-weight="650" fill="#0f172a"><tspan x="275" dy="0">init_startup_listen_context()</tspan><tspan x="275" dy="25">address / credentials</tspan><tspan x="275" dy="25">readiness</tspan></text>
  </g>
<g class="node">
    <rect x="105" y="625" width="340" height="100" rx="8" fill="#dbeafe" stroke="#2563eb" stroke-width="3"/>
    <text x="275" y="663" text-anchor="middle" font-size="19" font-weight="650" fill="#0f172a"><tspan x="275" dy="0">init_startup_storage_foundation()</tspan><tspan x="275" dy="24">volumes -&gt; endpoint pools</tspan></text>
  </g>
<g class="node">
    <rect x="105" y="790" width="340" height="80" rx="8" fill="#dbeafe" stroke="#2563eb" stroke-width="3"/>
    <text x="275" y="816" text-anchor="middle" font-size="22" font-weight="650" fill="#0f172a"><tspan x="275" dy="0">HTTP + ECStore + services</tspan><tspan x="275" dy="28">FullReady after storage/IAM</tspan></text>
  </g>
<g class="node">
    <rect x="585" y="165" width="330" height="110" rx="8" fill="#dcfce7" stroke="#16a34a" stroke-width="3"/>
    <text x="750" y="192" text-anchor="middle" font-size="22" font-weight="650" fill="#0f172a"><tspan x="750" dy="0">ServerOpts.volumes</tspan><tspan x="750" dy="28">RUSTFS_VOLUMES env</tspan><tspan x="750" dy="28">split by spaces</tspan></text>
  </g>
<g class="node">
    <rect x="585" y="360" width="330" height="110" rx="8" fill="#dcfce7" stroke="#16a34a" stroke-width="3"/>
    <text x="750" y="386" text-anchor="middle" font-size="23" font-weight="650" fill="#0f172a"><tspan x="750" dy="0">DisksLayout</tspan><tspan x="750" dy="29">2 volume groups</tspan><tspan x="750" dy="29">8 endpoints each</tspan></text>
  </g>
<g class="node">
    <rect x="585" y="555" width="330" height="110" rx="8" fill="#dcfce7" stroke="#16a34a" stroke-width="3"/>
    <text x="750" y="582" text-anchor="middle" font-size="22" font-weight="650" fill="#0f172a"><tspan x="750" dy="0">EndpointServerPools</tspan><tspan x="750" dy="28">2 pools</tspan><tspan x="750" dy="28">same view in every process</tspan></text>
  </g>
<g class="node">
    <rect x="585" y="750" width="330" height="105" rx="8" fill="#dcfce7" stroke="#16a34a" stroke-width="3"/>
    <text x="750" y="774.5" text-anchor="middle" font-size="22" font-weight="650" fill="#0f172a"><tspan x="750" dy="0">local endpoint mark</tspan><tspan x="750" dy="28">2 local disks per process</tspan><tspan x="750" dy="28">others remote</tspan></text>
  </g>
<g class="node">
    <rect x="1130" y="170" width="555" height="105" rx="8" fill="#fef3c7" stroke="#d97706" stroke-width="3"/>
    <text x="1407.5" y="196.5" text-anchor="middle" font-size="21" font-weight="650" fill="#0f172a"><tspan x="1407.5" dy="0">RUSTFS_VOLUMES</tspan><tspan x="1407.5" dy="26">http://node{1...4}:9000/data{1...2}</tspan><tspan x="1407.5" dy="26">http://node{5...8}:9000/data{1...2}</tspan></text>
  </g>
<g class="node">
    <rect x="1110" y="410" width="110" height="85" rx="8" fill="#dbeafe" stroke="#2563eb" stroke-width="3"/>
    <text x="1165" y="429.5" text-anchor="middle" font-size="18" font-weight="650" fill="#0f172a"><tspan x="1165" dy="0">node1</tspan><tspan x="1165" dy="23">/data1</tspan><tspan x="1165" dy="23">/data2</tspan></text>
  </g>
<g class="node">
    <rect x="1245" y="410" width="110" height="85" rx="8" fill="#dbeafe" stroke="#2563eb" stroke-width="3"/>
    <text x="1300" y="429.5" text-anchor="middle" font-size="18" font-weight="650" fill="#0f172a"><tspan x="1300" dy="0">node2</tspan><tspan x="1300" dy="23">/data1</tspan><tspan x="1300" dy="23">/data2</tspan></text>
  </g>
<g class="node">
    <rect x="1110" y="535" width="110" height="85" rx="8" fill="#dbeafe" stroke="#2563eb" stroke-width="3"/>
    <text x="1165" y="554.5" text-anchor="middle" font-size="18" font-weight="650" fill="#0f172a"><tspan x="1165" dy="0">node3</tspan><tspan x="1165" dy="23">/data1</tspan><tspan x="1165" dy="23">/data2</tspan></text>
  </g>
<g class="node">
    <rect x="1245" y="535" width="110" height="85" rx="8" fill="#dbeafe" stroke="#2563eb" stroke-width="3"/>
    <text x="1300" y="554.5" text-anchor="middle" font-size="18" font-weight="650" fill="#0f172a"><tspan x="1300" dy="0">node4</tspan><tspan x="1300" dy="23">/data1</tspan><tspan x="1300" dy="23">/data2</tspan></text>
  </g>
<g class="node">
    <rect x="1115" y="700" width="240" height="75" rx="8" fill="#ffffff" stroke="#9ca3af" stroke-width="3"/>
    <text x="1235" y="723.5" text-anchor="middle" font-size="22" font-weight="650" fill="#111827"><tspan x="1235" dy="0">set 0</tspan><tspan x="1235" dy="28">8 drives</tspan></text>
  </g>
<g class="node">
    <rect x="1440" y="410" width="110" height="85" rx="8" fill="#fef3c7" stroke="#d97706" stroke-width="3"/>
    <text x="1495" y="429.5" text-anchor="middle" font-size="18" font-weight="650" fill="#0f172a"><tspan x="1495" dy="0">node5</tspan><tspan x="1495" dy="23">/data1</tspan><tspan x="1495" dy="23">/data2</tspan></text>
  </g>
<g class="node">
    <rect x="1575" y="410" width="110" height="85" rx="8" fill="#fef3c7" stroke="#d97706" stroke-width="3"/>
    <text x="1630" y="429.5" text-anchor="middle" font-size="18" font-weight="650" fill="#0f172a"><tspan x="1630" dy="0">node6</tspan><tspan x="1630" dy="23">/data1</tspan><tspan x="1630" dy="23">/data2</tspan></text>
  </g>
<g class="node">
    <rect x="1440" y="535" width="110" height="85" rx="8" fill="#fef3c7" stroke="#d97706" stroke-width="3"/>
    <text x="1495" y="554.5" text-anchor="middle" font-size="18" font-weight="650" fill="#0f172a"><tspan x="1495" dy="0">node7</tspan><tspan x="1495" dy="23">/data1</tspan><tspan x="1495" dy="23">/data2</tspan></text>
  </g>
<g class="node">
    <rect x="1575" y="535" width="110" height="85" rx="8" fill="#fef3c7" stroke="#d97706" stroke-width="3"/>
    <text x="1630" y="554.5" text-anchor="middle" font-size="18" font-weight="650" fill="#0f172a"><tspan x="1630" dy="0">node8</tspan><tspan x="1630" dy="23">/data1</tspan><tspan x="1630" dy="23">/data2</tspan></text>
  </g>
<g class="node">
    <rect x="1445" y="700" width="240" height="75" rx="8" fill="#ffffff" stroke="#9ca3af" stroke-width="3"/>
    <text x="1565" y="723.5" text-anchor="middle" font-size="22" font-weight="650" fill="#111827"><tspan x="1565" dy="0">set 0</tspan><tspan x="1565" dy="28">8 drives</tspan></text>
  </g>
<g class="node">
    <rect x="1220" y="850" width="360" height="110" rx="8" fill="#ffedd5" stroke="#ea580c" stroke-width="3"/>
    <text x="1400" y="877" text-anchor="middle" font-size="22" font-weight="650" fill="#0f172a"><tspan x="1400" dy="0">SetupType::DistErasure</tspan><tspan x="1400" dy="28">per pool: 1 set x 8 drives</tspan><tspan x="1400" dy="28">STANDARD: EC 4+4</tspan></text>
  </g>
<g class="arrow-overlay">
    <circle cx="275" cy="260" r="19" fill="#2563eb" stroke="#ffffff" stroke-width="4"/><text x="275" y="267" text-anchor="middle" font-size="21" font-weight="800" fill="#ffffff">1</text>
    
  </g>
<g class="arrow-overlay">
    <circle cx="275" cy="415" r="19" fill="#2563eb" stroke="#ffffff" stroke-width="4"/><text x="275" y="422" text-anchor="middle" font-size="21" font-weight="800" fill="#ffffff">2</text>
    
  </g>
<g class="arrow-overlay">
    <circle cx="275" cy="595" r="19" fill="#2563eb" stroke="#ffffff" stroke-width="4"/><text x="275" y="602" text-anchor="middle" font-size="21" font-weight="800" fill="#ffffff">3</text>
    
  </g>
<g class="arrow-overlay">
    <circle cx="275" cy="758" r="19" fill="#2563eb" stroke="#ffffff" stroke-width="4"/><text x="275" y="765" text-anchor="middle" font-size="21" font-weight="800" fill="#ffffff">4</text>
    
  </g>
<g class="arrow-overlay">
    <circle cx="500" cy="675" r="19" fill="#2563eb" stroke="#ffffff" stroke-width="4"/><text x="500" y="682" text-anchor="middle" font-size="21" font-weight="800" fill="#ffffff">5</text>
    <rect x="435" y="566" width="140" height="38" rx="5" fill="#fbfbf7" stroke="none" opacity="0.94"/><text x="505" y="585" text-anchor="middle" font-size="19" font-weight="650" fill="#1f2937"><tspan x="505" dy="0">read volumes</tspan></text>
  </g>
<g class="arrow-overlay">
    <circle cx="750" cy="315" r="19" fill="#2563eb" stroke="#ffffff" stroke-width="4"/><text x="750" y="322" text-anchor="middle" font-size="21" font-weight="800" fill="#ffffff">6</text>
    
  </g>
<g class="arrow-overlay">
    <circle cx="750" cy="510" r="19" fill="#2563eb" stroke="#ffffff" stroke-width="4"/><text x="750" y="517" text-anchor="middle" font-size="21" font-weight="800" fill="#ffffff">7</text>
    
  </g>
<g class="arrow-overlay">
    <circle cx="750" cy="705" r="19" fill="#64748b" stroke="#ffffff" stroke-width="4"/><text x="750" y="712" text-anchor="middle" font-size="21" font-weight="800" fill="#ffffff">8</text>
    
  </g>
<g class="arrow-overlay">
    <circle cx="1000" cy="610" r="19" fill="#2563eb" stroke="#ffffff" stroke-width="4"/><text x="1000" y="617" text-anchor="middle" font-size="21" font-weight="800" fill="#ffffff">9</text>
    <rect x="902.5" y="481" width="195" height="38" rx="5" fill="#fbfbf7" stroke="none" opacity="0.94"/><text x="1000" y="500" text-anchor="middle" font-size="19" font-weight="650" fill="#1f2937"><tspan x="1000" dy="0">same topology view</tspan></text>
  </g>
<g class="arrow-overlay">
    <circle cx="1264" cy="648" r="19" fill="#2563eb" stroke="#ffffff" stroke-width="4"/><text x="1264" y="655" text-anchor="middle" font-size="21" font-weight="800" fill="#ffffff">10</text>
    
  </g>
<g class="arrow-overlay">
    <circle cx="1594" cy="648" r="19" fill="#2563eb" stroke="#ffffff" stroke-width="4"/><text x="1594" y="655" text-anchor="middle" font-size="21" font-weight="800" fill="#ffffff">11</text>
    
  </g>
<g class="arrow-overlay">
    <circle cx="1305" cy="815" r="19" fill="#2563eb" stroke="#ffffff" stroke-width="4"/><text x="1305" y="822" text-anchor="middle" font-size="21" font-weight="800" fill="#ffffff">12</text>
    
  </g>
<g class="arrow-overlay">
    <circle cx="1495" cy="815" r="19" fill="#2563eb" stroke="#ffffff" stroke-width="4"/><text x="1495" y="822" text-anchor="middle" font-size="21" font-weight="800" fill="#ffffff">13</text>
    
  </g>
<g class="note">
    <rect x="70" y="920" width="980" height="80" rx="8" fill="#f8fafc" stroke="#cbd5e1" stroke-width="2"/>
    <text x="88" y="954" font-size="20" font-weight="500" fill="#334155">
      <tspan x="88" dy="0">The figure separates the source reading path from the observed 8-node / 16-disk Docker</tspan><tspan x="88" dy="26">topology; it is not a runtime stack trace.</tspan>
    </text>
  </g>
<g class="legend">
    <g>
        <rect x="70" y="1000" width="28" height="18" rx="4" fill="#dbeafe" stroke="#2563eb" stroke-width="2"/>
        <text x="110" y="1016" font-size="18" font-weight="600" fill="#334155">startup function / pool 0</text>
      </g><g>
        <rect x="449" y="1000" width="28" height="18" rx="4" fill="#dcfce7" stroke="#16a34a" stroke-width="2"/>
        <text x="489" y="1016" font-size="18" font-weight="600" fill="#334155">runtime topology state</text>
      </g><g>
        <rect x="789" y="1000" width="28" height="18" rx="4" fill="#fef3c7" stroke="#d97706" stroke-width="2"/>
        <text x="829" y="1016" font-size="18" font-weight="600" fill="#334155">volume endpoint / pool 1</text>
      </g><g>
        <rect x="1155" y="1000" width="28" height="18" rx="4" fill="#ffedd5" stroke="#ea580c" stroke-width="2"/>
        <text x="1195" y="1016" font-size="18" font-weight="600" fill="#334155">derived setup</text>
      </g>
  </g>
</svg>
