<svg xmlns="http://www.w3.org/2000/svg" width="1800" height="1000" viewBox="0 0 1800 1000" role="img" aria-label="RustFS ECStore format initialization">
  <defs>
    <marker id="arrow-head-0" viewBox="0 0 14 14" refX="12" refY="7" markerWidth="14" markerHeight="14" markerUnits="userSpaceOnUse" orient="auto-start-reverse">
      <path d="M 2 2 L 12 7 L 2 12 z" fill="#2563eb"/>
    </marker>
<marker id="arrow-head-1" viewBox="0 0 14 14" refX="12" refY="7" markerWidth="14" markerHeight="14" markerUnits="userSpaceOnUse" orient="auto-start-reverse">
      <path d="M 2 2 L 12 7 L 2 12 z" fill="#2563eb"/>
    </marker>
<marker id="arrow-head-2" viewBox="0 0 14 14" refX="12" refY="7" markerWidth="14" markerHeight="14" markerUnits="userSpaceOnUse" orient="auto-start-reverse">
      <path d="M 2 2 L 12 7 L 2 12 z" fill="#2563eb"/>
    </marker>
<marker id="arrow-head-3" viewBox="0 0 14 14" refX="12" refY="7" markerWidth="14" markerHeight="14" markerUnits="userSpaceOnUse" orient="auto-start-reverse">
      <path d="M 2 2 L 12 7 L 2 12 z" fill="#2563eb"/>
    </marker>
<marker id="arrow-head-4" viewBox="0 0 14 14" refX="12" refY="7" markerWidth="14" markerHeight="14" markerUnits="userSpaceOnUse" orient="auto-start-reverse">
      <path d="M 2 2 L 12 7 L 2 12 z" fill="#2563eb"/>
    </marker>
<marker id="arrow-head-5" viewBox="0 0 14 14" refX="12" refY="7" markerWidth="14" markerHeight="14" markerUnits="userSpaceOnUse" orient="auto-start-reverse">
      <path d="M 2 2 L 12 7 L 2 12 z" fill="#2563eb"/>
    </marker>
<marker id="arrow-head-6" viewBox="0 0 14 14" refX="12" refY="7" markerWidth="14" markerHeight="14" markerUnits="userSpaceOnUse" orient="auto-start-reverse">
      <path d="M 2 2 L 12 7 L 2 12 z" fill="#64748b"/>
    </marker>
    <style>
      svg { background: #fbfbf7; }
      text { font-family: Inter, ui-sans-serif, system-ui, -apple-system, BlinkMacSystemFont, "Segoe UI", sans-serif; }
    </style>
  </defs>
  <rect width="100%" height="100%" fill="#fbfbf7"/>
  
  <g class="zone">
    <rect x="70" y="110" width="470" height="690" rx="10" fill="#dbeafe" stroke="#2563eb" stroke-width="2" opacity="0.45"/>
    <text x="94" y="148" text-anchor="start" font-size="25" font-weight="700" fill="#0f172a"><tspan x="94" dy="0">ECStore::new runtime loop</tspan></text>
  </g>
<g class="zone">
    <rect x="620" y="110" width="500" height="690" rx="10" fill="#dcfce7" stroke="#16a34a" stroke-width="2" opacity="0.45"/>
    <text x="644" y="148" text-anchor="start" font-size="25" font-weight="700" fill="#0f172a"><tspan x="644" dy="0">pool 0: node1..node4 / data1..data2</tspan></text>
  </g>
<g class="zone">
    <rect x="1220" y="110" width="500" height="690" rx="10" fill="#fef3c7" stroke="#d97706" stroke-width="2" opacity="0.45"/>
    <text x="1244" y="148" text-anchor="start" font-size="25" font-weight="700" fill="#0f172a"><tspan x="1244" dy="0">pool 1: node5..node8 / data1..data2</tspan></text>
  </g>
<g class="arrow">
    <path d="M 461.33864986135484 406.5975730743551 L 679.8274682459423 330.89311407267786" fill="none" stroke="#2563eb" stroke-width="3" stroke-linecap="round" stroke-linejoin="round" marker-end="url(#arrow-head-0)"/>
  </g>
<g class="arrow">
    <path d="M 870 337 L 870 412" fill="none" stroke="#2563eb" stroke-width="3" stroke-linecap="round" stroke-linejoin="round" marker-end="url(#arrow-head-1)"/>
  </g>
<g class="arrow">
    <path d="M 678.4465393220187 556.2693924710122 L 467.330191016972 615.5301218197974" fill="none" stroke="#2563eb" stroke-width="3" stroke-linecap="round" stroke-linejoin="round" marker-end="url(#arrow-head-2)"/>
  </g>
<g class="arrow">
    <path d="M 409.42091804525364 720.629862711541 L 527.6363799275963 783.4318268365355 Q 540 790 554 790 L 1166 790 Q 1180 790 1180 776 L 1180 299 Q 1180 285 1193.9668245979217 284.0367707173847 L 1272.0426540883864 278.65223075252504" fill="none" stroke="#2563eb" stroke-width="3" stroke-linecap="round" stroke-linejoin="round" marker-end="url(#arrow-head-3)"/>
  </g>
<g class="arrow">
    <path d="M 1470 337 L 1470 412" fill="none" stroke="#2563eb" stroke-width="3" stroke-linecap="round" stroke-linejoin="round" marker-end="url(#arrow-head-4)"/>
  </g>
<g class="arrow">
    <path d="M 1470 587 L 1470 632" fill="none" stroke="#2563eb" stroke-width="3" stroke-linecap="round" stroke-linejoin="round" marker-end="url(#arrow-head-5)"/>
  </g>
<g class="arrow">
    <path d="M 870 638 L 870 593" fill="none" stroke="#64748b" stroke-width="3" stroke-linecap="round" stroke-linejoin="round" stroke-dasharray="9 8" marker-end="url(#arrow-head-6)"/>
  </g>
<g class="node">
    <rect x="150" y="210" width="300" height="120" rx="8" fill="#dbeafe" stroke="#2563eb" stroke-width="3"/>
    <text x="300" y="254.5" text-anchor="middle" font-size="25" font-weight="650" fill="#0f172a"><tspan x="300" dy="0">for pool in</tspan><tspan x="300" dy="31">endpoint_pools</tspan></text>
  </g>
<g class="node">
    <rect x="150" y="410" width="300" height="105" rx="8" fill="#ffffff" stroke="#9ca3af" stroke-width="3"/>
    <text x="300" y="447" text-anchor="middle" font-size="25" font-weight="650" fill="#111827"><tspan x="300" dy="0">deployment_id</tspan><tspan x="300" dy="31">starts as None</tspan></text>
  </g>
<g class="node">
    <rect x="150" y="610" width="300" height="105" rx="8" fill="#ffffff" stroke="#9ca3af" stroke-width="3"/>
    <text x="300" y="647" text-anchor="middle" font-size="25" font-weight="650" fill="#111827"><tspan x="300" dy="0">after pool 0</tspan><tspan x="300" dy="31">Some(fm.id)</tspan></text>
  </g>
<g class="node">
    <rect x="690" y="205" width="360" height="120" rx="8" fill="#dcfce7" stroke="#16a34a" stroke-width="3"/>
    <text x="870" y="249.5" text-anchor="middle" font-size="25" font-weight="650" fill="#0f172a"><tspan x="870" dy="0">node1</tspan><tspan x="870" dy="31">pool0 first endpoint</tspan></text>
  </g>
<g class="node">
    <rect x="690" y="430" width="360" height="145" rx="8" fill="#fef3c7" stroke="#d97706" stroke-width="3"/>
    <text x="870" y="471.5" text-anchor="middle" font-size="25" font-weight="650" fill="#0f172a"><tspan x="870" dy="0">init_format_erasure()</tspan><tspan x="870" dy="31">FormatV3::new()</tspan><tspan x="870" dy="31">format.json x 8</tspan></text>
  </g>
<g class="node">
    <rect x="690" y="650" width="360" height="105" rx="8" fill="#e5e7eb" stroke="#6b7280" stroke-width="3"/>
    <text x="870" y="687" text-anchor="middle" font-size="25" font-weight="650" fill="#111827"><tspan x="870" dy="0">other nodes</tspan><tspan x="870" dy="31">NotFirstDisk -&gt; retry</tspan></text>
  </g>
<g class="node">
    <rect x="1290" y="205" width="360" height="120" rx="8" fill="#dcfce7" stroke="#16a34a" stroke-width="3"/>
    <text x="1470" y="249.5" text-anchor="middle" font-size="25" font-weight="650" fill="#0f172a"><tspan x="1470" dy="0">node5</tspan><tspan x="1470" dy="31">pool1 first endpoint</tspan></text>
  </g>
<g class="node">
    <rect x="1290" y="430" width="360" height="145" rx="8" fill="#fef3c7" stroke="#d97706" stroke-width="3"/>
    <text x="1470" y="471.5" text-anchor="middle" font-size="25" font-weight="650" fill="#0f172a"><tspan x="1470" dy="0">init_format_erasure()</tspan><tspan x="1470" dy="31">new disk UUIDs</tspan><tspan x="1470" dy="31">id overwritten by deployment_id</tspan></text>
  </g>
<g class="node">
    <rect x="1290" y="650" width="360" height="105" rx="8" fill="#ffffff" stroke="#9ca3af" stroke-width="3"/>
    <text x="1470" y="687" text-anchor="middle" font-size="25" font-weight="650" fill="#111827"><tspan x="1470" dy="0">same deployment id</tspan><tspan x="1470" dy="31">across both pools</tspan></text>
  </g>
<g class="arrow-overlay">
    <circle cx="497.2443744223119" cy="394.15655447647964" r="19" fill="#2563eb" stroke="#ffffff" stroke-width="4"/><text x="497.2443744223119" y="401.15655447647964" text-anchor="middle" font-size="21" font-weight="800" fill="#ffffff">1</text>
    
  </g>
<g class="arrow-overlay">
    <circle cx="870" cy="375" r="19" fill="#2563eb" stroke="#ffffff" stroke-width="4"/><text x="870" y="382" text-anchor="middle" font-size="21" font-weight="800" fill="#ffffff">2</text>
    
  </g>
<g class="arrow-overlay">
    <circle cx="641.8605805084112" cy="566.5391352958845" r="19" fill="#2563eb" stroke="#ffffff" stroke-width="4"/><text x="641.8605805084112" y="573.5391352958845" text-anchor="middle" font-size="21" font-weight="800" fill="#ffffff">3</text>
    
  </g>
<g class="arrow-overlay">
    <circle cx="660" cy="790" r="19" fill="#2563eb" stroke="#ffffff" stroke-width="4"/><text x="660" y="797" text-anchor="middle" font-size="21" font-weight="800" fill="#ffffff">4</text>
    
  </g>
<g class="arrow-overlay">
    <circle cx="1470" cy="375" r="19" fill="#2563eb" stroke="#ffffff" stroke-width="4"/><text x="1470" y="382" text-anchor="middle" font-size="21" font-weight="800" fill="#ffffff">5</text>
    
  </g>
<g class="arrow-overlay">
    <circle cx="1470" cy="625" r="19" fill="#2563eb" stroke="#ffffff" stroke-width="4"/><text x="1470" y="632" text-anchor="middle" font-size="21" font-weight="800" fill="#ffffff">6</text>
    
  </g>
<g class="arrow-overlay">
    
    
  </g>
<g class="note">
    <rect x="95" y="850" width="760" height="106" rx="8" fill="#f8fafc" stroke="#cbd5e1" stroke-width="2"/>
    <text x="113" y="884" font-size="20" font-weight="500" fill="#334155">
      <tspan x="113" dy="0">The deployment id is not broadcast as a separate control</tspan><tspan x="113" dy="26">message. It is persisted in per-disk .rustfs.sys/format.json and</tspan><tspan x="113" dy="26">later loaded by quorum reads.</tspan>
    </text>
  </g>
<g class="note">
    <rect x="935" y="850" width="760" height="106" rx="8" fill="#f8fafc" stroke="#cbd5e1" stroke-width="2"/>
    <text x="953" y="884" font-size="20" font-weight="500" fill="#334155">
      <tspan x="953" dy="0">In the observed Docker cluster, each pool has one 8-drive set;</tspan><tspan x="953" dy="26">the two pools share one deployment id but have different</tspan><tspan x="953" dy="26">per-disk this UUID values.</tspan>
    </text>
  </g>
<g class="legend">
    <g>
        <rect x="80" y="912" width="28" height="18" rx="4" fill="#dbeafe" stroke="#2563eb" stroke-width="2"/>
        <text x="120" y="928" font-size="18" font-weight="600" fill="#334155">runtime control</text>
      </g><g>
        <rect x="329" y="912" width="28" height="18" rx="4" fill="#dcfce7" stroke="#16a34a" stroke-width="2"/>
        <text x="369" y="928" font-size="18" font-weight="600" fill="#334155">first endpoint node</text>
      </g><g>
        <rect x="630" y="912" width="28" height="18" rx="4" fill="#fef3c7" stroke="#d97706" stroke-width="2"/>
        <text x="670" y="928" font-size="18" font-weight="600" fill="#334155">persistent format.json</text>
      </g><g>
        <rect x="970" y="912" width="28" height="18" rx="4" fill="#e5e7eb" stroke="#6b7280" stroke-width="2"/>
        <text x="1010" y="928" font-size="18" font-weight="600" fill="#334155">retry path</text>
      </g>
  </g>
</svg>
